<?xml version="1.0" encoding="UTF-8" standalone="no"?>
<svg
   xmlns:dc="http://purl.org/dc/elements/1.1/"
   xmlns:cc="http://creativecommons.org/ns#"
   xmlns:rdf="http://www.w3.org/1999/02/22-rdf-syntax-ns#"
   xmlns:svg="http://www.w3.org/2000/svg"
   xmlns="http://www.w3.org/2000/svg"
   xmlns:sodipodi="http://sodipodi.sourceforge.net/DTD/sodipodi-0.dtd"
   xmlns:inkscape="http://www.inkscape.org/namespaces/inkscape"
   sodipodi:docname="ultrasonic_mist_final.svg"
   inkscape:version="1.0 (4035a4fb49, 2020-05-01)"
   id="svg8"
   version="1.1"
   viewBox="0 0 94.098541 61.548695"
   height="61.548695mm"
   width="94.098541mm">
  <defs
     id="defs2">
    <inkscape:path-effect
       only_selected="false"
       apply_with_weight="true"
       apply_no_weight="true"
       helper_size="0"
       steps="2"
       weight="33.333333"
       lpeversion="1"
       is_visible="true"
       id="path-effect861"
       effect="bspline" />
    <inkscape:path-effect
       only_selected="false"
       apply_with_weight="true"
       apply_no_weight="true"
       helper_size="0"
       steps="2"
       weight="33.333333"
       lpeversion="1"
       is_visible="true"
       id="path-effect843"
       effect="bspline" />
    <inkscape:path-effect
       only_selected="false"
       apply_with_weight="true"
       apply_no_weight="true"
       helper_size="0"
       steps="2"
       weight="33.333333"
       lpeversion="1"
       is_visible="true"
       id="path-effect865"
       effect="bspline" />
    <inkscape:path-effect
       only_selected="false"
       apply_with_weight="true"
       apply_no_weight="true"
       helper_size="0"
       steps="2"
       weight="33.333333"
       lpeversion="1"
       is_visible="true"
       id="path-effect869"
       effect="bspline" />
    <inkscape:path-effect
       effect="bspline"
       id="path-effect847"
       is_visible="true"
       lpeversion="1"
       weight="33.333333"
       steps="2"
       helper_size="0"
       apply_no_weight="true"
       apply_with_weight="true"
       only_selected="false" />
    <inkscape:path-effect
       effect="bspline"
       id="path-effect851"
       is_visible="true"
       lpeversion="1"
       weight="33.333333"
       steps="2"
       helper_size="0"
       apply_no_weight="true"
       apply_with_weight="true"
       only_selected="false" />
  </defs>
  <sodipodi:namedview
     fit-margin-bottom="0"
     fit-margin-right="0"
     fit-margin-left="0"
     fit-margin-top="0"
     inkscape:window-maximized="1"
     inkscape:window-y="-11"
     inkscape:window-x="-11"
     inkscape:window-height="986"
     inkscape:window-width="1920"
     showgrid="false"
     inkscape:document-rotation="0"
     inkscape:current-layer="layer1"
     inkscape:document-units="mm"
     inkscape:cy="88.415868"
     inkscape:cx="154.69188"
     inkscape:zoom="1.4"
     inkscape:pageshadow="2"
     inkscape:pageopacity="0.0"
     borderopacity="1.0"
     bordercolor="#666666"
     pagecolor="#ffffff"
     id="base" />
  <metadata
     id="metadata5">
    <rdf:RDF>
      <cc:Work
         rdf:about="">
        <dc:format>image/svg+xml</dc:format>
        <dc:type
           rdf:resource="http://purl.org/dc/dcmitype/StillImage" />
        <dc:title></dc:title>
      </cc:Work>
    </rdf:RDF>
  </metadata>
  <g
     transform="translate(-73.336165,-95.28076)"
     id="layer1"
     inkscape:groupmode="layer"
     inkscape:label="Capa 1">
    <path
       inkscape:original-d="m 83.621008,131.25557 c 0.320668,0.46152 0.640707,0.92242 0.960113,1.38268 0.554039,0.37712 1.107431,0.75361 1.660195,1.1295 0.554044,0.26028 1.107431,0.51993 1.660193,0.77897 0.574051,0.14993 1.14744,0.29922 1.720209,0.44791 0.66739,0.0786 1.347459,0.15645 2.020235,0.2337 0.434027,-0.007 0.867405,-0.0117 1.300153,-0.0187 0.580713,-0.0772 1.16077,-0.15529 1.740203,-0.2337 0.547379,-0.14876 1.094099,-0.29799 1.640196,-0.44791 0.574051,-0.23955 1.147442,-0.47974 1.720209,-0.72055 0.460696,-0.37588 0.920741,-0.75239 1.380161,-1.12951 0.31401,-0.33044 0.640705,-0.66149 0.960115,-0.99319 0.12731,-0.49272 0.254,-0.98607 0.38004,-1.48003 0.0473,-0.46028 0.10732,-0.92116 0.16003,-1.38266 -0.0194,-0.81082 -0.0394,-1.62223 -0.06,-2.43427 -0.41943,-0.53819 -0.83947,-1.07699 -1.260155,-1.61639 -0.659456,-0.44079 -1.319523,-0.8822 -1.980234,-1.32423 -0.792807,-0.25256 -1.586215,-0.50573 -2.380277,-0.7595 -0.826151,-0.0968 -1.652896,-0.19423 -2.480293,-0.29211 -0.74614,0.021 -1.492882,0.0396 -2.240268,0.0585 -1.159522,0.31871 -2.31964,0.63677 -3.480409,0.95422 -0.866153,0.52644 -1.719574,1.05225 -2.580307,1.57743 -0.33941,0.53292 -0.679448,1.06521 -1.020121,1.59689 -0.186057,0.46152 -0.37274,0.92239 -0.560064,1.38266 0.03396,0.60434 0.0673,1.20802 0.10001,1.81112 0.214005,0.49396 0.427355,0.98731 0.640081,1.48003 z"
       inkscape:path-effect="#path-effect861"
       id="path859"
       d="m 83.781276,131.48638 c 0.160268,0.2308 0.48031,0.6917 0.91714,1.11028 0.43683,0.41858 0.990219,0.79508 1.543643,1.11309 0.553424,0.31802 1.10681,0.57767 1.670212,0.78207 0.563401,0.2044 1.136787,0.3537 1.756892,0.46687 0.620104,0.11316 1.30008,0.19182 1.853454,0.22761 0.553374,0.0358 0.98673,0.0296 1.493414,-0.0125 0.506684,-0.0421 1.086766,-0.12 1.65012,-0.23363 0.563354,-0.11363 1.110056,-0.26293 1.670069,-0.45768 0.560014,-0.19475 1.133409,-0.43493 1.650018,-0.74324 0.516609,-0.30831 0.976661,-0.68481 1.365056,-1.03689 0.388396,-0.35209 0.711646,-0.68647 0.934956,-1.09847 0.22331,-0.41199 0.34999,-0.90534 0.43998,-1.38203 0.09,-0.47668 0.14342,-0.93832 0.16014,-1.57443 0.0167,-0.63612 -0.003,-1.44753 -0.22306,-2.12261 -0.21977,-0.67509 -0.63982,-1.21388 -1.179794,-1.70409 -0.539973,-0.4902 -1.200043,-0.93161 -1.926788,-1.27902 -0.726745,-0.34741 -1.520156,-0.60057 -2.330292,-0.77592 -0.810135,-0.17535 -1.636887,-0.27272 -2.423701,-0.3117 -0.786814,-0.039 -1.533532,-0.0195 -2.487081,0.14925 -0.953548,0.16874 -2.113664,0.48681 -3.126341,0.91024 -1.012676,0.42343 -1.867915,0.94627 -2.468126,1.47546 -0.60021,0.52918 -0.940247,1.06147 -1.203629,1.55815 -0.263381,0.49668 -0.450063,0.95755 -0.526658,1.49003 -0.07659,0.53247 -0.04326,1.13615 0.08024,1.68474 0.123494,0.54858 0.336855,1.04192 0.443371,1.28822 0.106517,0.24629 0.106502,0.24543 0.26677,0.47624 z"
       style="display:inline;opacity:1;fill:#2d373f;fill-opacity:1;stroke:#000000;stroke-width:0.0472608;stroke-linecap:butt;stroke-linejoin:miter;stroke-miterlimit:4;stroke-dasharray:none;stroke-opacity:1" />
    <path
       inkscape:original-d="m 86.131866,129.74052 c 0.09493,0.26683 0.189219,0.53306 0.282877,0.79868 0.132652,0.20262 0.264655,0.40454 0.396028,0.60587 0.264659,0.22104 0.528667,0.44129 0.792053,0.661 0.217502,0.16578 0.434381,0.33109 0.650619,0.49573 0.321231,0.10166 0.641815,0.20262 0.961772,0.30295 0.31181,0.0832 0.641825,0.16578 0.961782,0.24785 0.519251,0.0648 1.03785,0.12917 1.55582,0.19283 0.264654,6.3e-4 0.528667,6.3e-4 0.792053,0 0.330662,6.3e-4 0.679539,-0.0187 1.018353,-0.0275 0.245795,-0.0268 0.490953,-0.0546 0.735481,-0.0825 0.566394,-0.24724 1.132137,-0.4951 1.697256,-0.74358 0.302377,-0.15552 0.604104,-0.31153 0.905204,-0.46819 0.302374,-0.34825 0.604101,-0.69709 0.905205,-1.04656 0.09493,-0.29315 0.189219,-0.60527 0.282877,-0.90885 -0.15023,-0.54103 -0.319961,-1.08264 -0.480892,-1.62489 -1.093174,-0.49512 -2.186942,-0.99085 -3.281364,-1.48721 -0.88573,-0.009 -1.772057,-0.0187 -2.659035,-0.0275 -0.74429,0.15668 -1.489181,0.31274 -2.234725,0.46819 -0.536841,0.23932 -1.074291,0.47798 -1.612394,0.71607 -0.263385,0.24848 -0.527398,0.49633 -0.792053,0.7436 -0.187949,0.15669 -0.376535,0.31275 -0.565754,0.46817 -0.103075,0.12918 -0.206797,0.25767 -0.311163,0.38559 6.35e-4,0.11075 6.35e-4,0.22103 0,0.33048 z"
       inkscape:path-effect="#path-effect843"
       id="path841"
       d="m 86.179143,129.874 c 0.04728,0.13348 0.141569,0.39971 0.254837,0.63381 0.113269,0.23411 0.245259,0.43603 0.443397,0.64712 0.198137,0.21108 0.462108,0.43137 0.702542,0.62413 0.240435,0.19275 0.457344,0.35802 0.726117,0.491 0.268774,0.13297 0.589352,0.23395 0.905514,0.32458 0.316163,0.0906 0.645582,0.17553 1.065167,0.24893 0.419585,0.0734 0.938196,0.13767 1.329475,0.16977 0.391279,0.0321 0.655292,0.0321 0.952187,0.0276 0.296895,-0.004 0.646039,-0.0139 0.938296,-0.0322 0.292258,-0.0183 0.537449,-0.0459 0.94277,-0.18357 0.405322,-0.13772 0.971066,-0.38557 1.4048,-0.58754 0.433735,-0.20197 0.735442,-0.35802 1.037035,-0.6104 0.301594,-0.25237 0.603319,-0.60122 0.799988,-0.92276 0.196669,-0.32155 0.293563,-0.63286 0.261109,-1.0537 -0.03245,-0.42084 -0.193506,-0.96502 -0.820288,-1.4839 -0.626782,-0.51889 -1.720551,-1.01462 -2.710689,-1.26724 -0.990138,-0.25262 -1.876471,-0.26179 -2.692178,-0.18839 -0.815707,0.0734 -1.560598,0.22945 -2.201884,0.42682 -0.641285,0.19736 -1.178727,0.43604 -1.579608,0.67938 -0.400881,0.24333 -0.664888,0.49118 -0.891177,0.69314 -0.226288,0.20195 -0.414876,0.35801 -0.561092,0.50037 -0.146216,0.14236 -0.249918,0.27086 -0.301756,0.39048 -0.05184,0.11961 -0.05184,0.22989 -0.05184,0.28461 0,0.0547 0,0.0545 0.04728,0.18798 z"
       style="display:inline;opacity:1;fill:#a7a5aa;fill-opacity:1;stroke:#000000;stroke-width:0.0354456;stroke-linecap:butt;stroke-linejoin:miter;stroke-miterlimit:4;stroke-dasharray:none;stroke-opacity:1" />
    <path
       id="path853"
       d="m 86.171278,129.68682 c -0.0079,-0.18723 -0.02371,-0.56216 0.119337,-0.92666 0.142949,-0.36451 0.444681,-0.71794 0.78892,-1.04161 0.344239,-0.32366 0.73083,-0.61742 1.126949,-0.86073 0.396121,-0.24333 0.801563,-0.43611 1.101197,-0.55943 0.299636,-0.12334 0.502005,-0.17953 0.780193,-0.24615 0.278191,-0.0665 0.636499,-0.14456 1.006645,-0.20192 0.370147,-0.0574 0.752023,-0.094 1.148106,-0.10096 0.39608,-0.007 0.806242,0.0163 1.270677,0.0895 0.464434,0.0734 0.983029,0.19749 1.450218,0.35499 0.467191,0.15762 0.890637,0.35212 1.253609,0.58864 0.362971,0.2365 0.669418,0.51651 0.90744,0.769 0.238026,0.25252 0.407748,0.47743 0.537238,0.75055 0.129491,0.27316 0.219059,0.59446 0.254273,0.80318 0.03521,0.20869 0.01629,0.30512 -0.01485,0.2681 -0.0312,-0.0371 -0.07223,-0.19679 -0.146374,-0.36554 -0.07412,-0.16881 -0.18019,-0.34079 -0.282652,-0.47626 -0.102453,-0.13546 -0.201481,-0.23416 -0.294543,-0.31568 -0.09306,-0.0816 -0.180286,-0.14572 -0.300508,-0.22966 -0.120223,-0.0837 -0.273425,-0.187 -0.456103,-0.29041 -0.182681,-0.10329 -0.394826,-0.20658 -0.629377,-0.30878 -0.234553,-0.10212 -0.491494,-0.20308 -0.806582,-0.30281 -0.315091,-0.0996 -0.691497,-0.19888 -0.987357,-0.26196 -0.29586,-0.0632 -0.512737,-0.0907 -0.724915,-0.11145 -0.212186,-0.021 -0.41961,-0.0345 -0.650662,-0.0368 -0.231057,-0.002 -0.485632,0.007 -0.749683,0.0275 -0.264053,0.021 -0.537495,0.0527 -0.820406,0.0975 -0.282908,0.0448 -0.575211,0.10212 -0.841619,0.16298 -0.266405,0.0609 -0.506848,0.12498 -0.75322,0.20192 -0.24637,0.0769 -0.4986,0.16648 -0.741447,0.26623 -0.242847,0.0998 -0.476222,0.21008 -0.704973,0.34771 -0.228758,0.1378 -0.452678,0.30298 -0.649556,0.46367 -0.196882,0.16065 -0.366597,0.31673 -0.54575,0.48083 -0.17916,0.16415 -0.367734,0.33622 -0.475405,0.52975 -0.107673,0.19353 -0.134352,0.40783 -0.147644,0.51471 -0.01341,0.10702 -0.01341,0.10702 -0.02108,-0.0802 z"
       style="display:inline;opacity:1;fill:#656462;fill-opacity:1;stroke:#000000;stroke-width:0.0236304;stroke-linecap:butt;stroke-linejoin:miter;stroke-miterlimit:4;stroke-dasharray:none;stroke-opacity:1" />
    <path
       inkscape:original-d="m 100.82304,127.12703 c 0.0406,-0.47973 0.0806,-0.9601 0.12001,-1.44109 -0.39942,-0.67449 -0.79946,-1.3496 -1.200147,-2.02531 -1.072846,-0.6096 -2.146289,-1.21977 -3.220383,-1.83059 -1.032838,-0.21358 -2.066277,-0.42781 -3.100362,-0.64264 -0.87949,-0.0187 -1.759573,-0.0382 -2.640313,-0.0585 -0.979504,0.21475 -1.959595,0.42905 -2.940349,0.64265 -0.806144,0.44205 -1.612892,0.88346 -2.420286,1.32425 -0.592778,0.64328 -1.186172,1.28592 -1.780212,1.92796 -0.206054,0.9289 -0.412748,1.85715 -0.62007,2.78482 6.35e-4,0.0331 -0.01269,0.0655 -0.02012,0.0975 0.08399,-0.26229 0.16733,-0.52518 0.250029,-0.7887 0.164001,-0.31423 0.320676,-0.62905 0.480062,-0.9445 0.267334,-0.34669 0.534027,-0.69396 0.800094,-1.04187 0.190656,-0.15202 0.380679,-0.30449 0.570063,-0.45765 0.294009,-0.19096 0.587373,-0.38239 0.880103,-0.57449 0.514044,-0.25257 1.027427,-0.50571 1.540183,-0.75949 0.499228,-0.14689 0.997796,-0.29451 1.495738,-0.44268 0.533402,-0.11868 1.075564,-0.23806 1.612398,-0.35803 0.500389,-0.0315 1.000129,-0.0636 1.499244,-0.0963 0.467387,0.014 0.934121,0.0282 1.400234,0.0413 0.547539,0.0923 1.094422,0.1842 1.640685,0.27541 0.401382,0.10166 0.802116,0.20262 1.202224,0.30295 0.368379,0.13827 0.736109,0.28521 1.103219,0.42688 0.410808,0.23013 0.820973,0.45963 1.230505,0.68851 0.311802,0.25309 0.622968,0.50554 0.933496,0.75738 0.175065,0.20728 0.34951,0.41373 0.523325,0.61966 0.14209,0.23472 0.28351,0.4688 0.42431,0.70229 0.0525,0.18886 0.10434,0.377 0.15559,0.56458 0.0275,0.10259 0.0544,0.20448 0.0806,0.30584 z"
       inkscape:path-effect="#path-effect865"
       id="path863"
       d="m 100.84302,126.88714 c 0.02,-0.23989 0.06,-0.72026 -0.1198,-1.29792 -0.17979,-0.57765 -0.57984,-1.25276 -1.316446,-1.89557 -0.736611,-0.64281 -1.810047,-1.25299 -2.863519,-1.66533 -1.053473,-0.41234 -2.086915,-0.62656 -3.043743,-0.74348 -0.956827,-0.11693 -1.83691,-0.13643 -2.76711,-0.0391 -0.9302,0.0973 -1.91031,0.31152 -2.803884,0.63933 -0.893575,0.32781 -1.700323,0.76922 -2.40053,1.31133 -0.700206,0.54211 -1.293599,1.18475 -1.693691,1.97044 -0.400092,0.78569 -0.606777,1.71394 -0.713336,2.19366 -0.106559,0.47973 -0.113516,0.51345 -0.07522,0.39826 0.03829,-0.11518 0.121634,-0.37807 0.243663,-0.66769 0.122028,-0.28962 0.281357,-0.60309 0.494748,-0.93424 0.213392,-0.33114 0.480079,-0.67841 0.708534,-0.92843 0.228456,-0.25001 0.41844,-0.40253 0.660191,-0.57459 0.241752,-0.17205 0.535086,-0.36352 0.938525,-0.58587 0.40344,-0.22234 0.916816,-0.4755 1.422875,-0.67586 0.506059,-0.20035 1.004645,-0.34791 1.520451,-0.48086 0.515806,-0.13294 1.057755,-0.25328 1.576427,-0.32897 0.518672,-0.0757 1.018412,-0.10779 1.501687,-0.11693 0.483274,-0.009 0.950021,0.005 1.456869,0.0575 0.506848,0.0528 1.053748,0.14464 1.527591,0.24107 0.473844,0.0964 0.874573,0.19741 1.258039,0.3188 0.383467,0.12138 0.752762,0.26428 1.141714,0.45024 0.388953,0.18597 0.799117,0.41547 1.159755,0.65652 0.360638,0.24105 0.671798,0.49351 0.914567,0.7231 0.242768,0.22959 0.41716,0.43609 0.575044,0.65645 0.15788,0.22036 0.2993,0.45444 0.39584,0.66561 0.0965,0.21118 0.14839,0.39931 0.18775,0.5444 0.0394,0.14508 0.0662,0.24699 0.0796,0.2976 0.0133,0.0506 0.0135,0.0505 0.0335,-0.18941 z"
       style="display:inline;opacity:1;fill:#010310;fill-opacity:1;stroke:#000000;stroke-width:0.0236304;stroke-linecap:butt;stroke-linejoin:miter;stroke-miterlimit:4;stroke-dasharray:none;stroke-opacity:1" />
    <path
       inkscape:original-d="m 105.05628,122.93794 c -1.07429,-0.71544 -2.14922,-1.43151 -3.22478,-2.14816 -1.885246,-0.55022 -3.77105,-1.10102 -5.657527,-1.65245 -1.677802,-0.12801 -3.356163,-0.25644 -5.035196,-0.38556 -1.30062,0.16578 -2.601825,0.33109 -3.903693,0.49573 -1.394913,0.42291 -2.828125,0.84519 -4.243139,1.26687 -0.791437,0.45964 -1.583471,0.91864 -2.376158,1.37702 -0.885731,0.55145 -1.772057,1.10226 -2.659036,1.65245 -0.772582,0.86357 -1.545759,1.72651 -2.319589,2.58882 0.07606,-0.0546 0.1515,-0.10959 0.226315,-0.16531 2.56543,6.3e-4 5.130117,6.3e-4 7.694228,0 -0.02299,-0.009 -0.05594,-0.0187 -0.08487,-0.0275 0.03834,-0.014 0.07606,-0.0268 0.113158,-0.0413 0.123216,-0.32526 0.24579,-0.65118 0.367735,-0.97768 0.07137,-0.12334 0.142087,-0.24724 0.212161,-0.3718 0.368381,-0.39873 0.736116,-0.79807 1.103223,-1.19802 0.566394,-0.36201 1.132136,-0.72462 1.697256,-1.08787 0.33066,-0.1371 0.660673,-0.27478 0.990065,-0.4131 0.523967,-0.15552 1.047272,-0.3115 1.569964,-0.46819 0.717264,-0.0727 1.433871,-0.14619 2.149856,-0.22034 0.896426,0.0695 1.773324,0.13827 2.659035,0.20659 0.30709,0.0741 0.613532,0.14759 0.919345,0.22034 0.655979,0.2347 1.311299,0.46879 1.965992,0.70228 0.523964,0.2944 1.047279,0.58816 1.569966,0.88129 0.448528,0.40457 0.896407,0.8085 1.343659,1.2118 0.10434,0.15202 0.20808,0.30356 0.31116,0.45441 0.14209,0.39997 0.28352,0.79931 0.42432,1.19802 0.0148,0.0879 0.0289,0.17511 0.0425,0.26166 1.0473,-0.8348 2.09391,-1.6702 3.13993,-2.50621 0.25994,-0.15995 0.51923,-0.32069 0.77791,-0.48197 0.0949,-0.0452 0.19865,-0.0912 0.29702,-0.1378 0.0525,-0.0499 0.10434,-0.10026 0.15559,-0.15156 -0.0748,-0.0268 -0.15023,-0.0546 -0.22631,-0.0825 z"
       inkscape:path-effect="#path-effect869"
       id="path867"
       d="m 104.51918,122.58015 c -0.5371,-0.35778 -1.61204,-1.07384 -3.09243,-1.70741 -1.480382,-0.63357 -3.366185,-1.18437 -5.148364,-1.52413 -1.78218,-0.33975 -3.460534,-0.46827 -4.95042,-0.44997 -1.489886,0.0183 -2.7911,0.18355 -4.140329,0.47471 -1.349229,0.29115 -2.780897,0.71861 -3.884228,1.15926 -1.103331,0.44066 -1.895366,0.89966 -2.734587,1.40458 -0.839221,0.50492 -1.725549,1.05572 -2.555428,1.76268 -0.829879,0.70695 -1.603067,1.56988 -1.951847,1.97373 -0.348781,0.40384 -0.273396,0.34877 1.046982,0.32126 1.320378,-0.0275 3.885065,-0.0275 5.155398,-0.0313 1.270333,-0.004 1.23767,-0.0144 1.24246,-0.026 0.0048,-0.0117 0.0422,-0.0253 0.122127,-0.19491 0.07993,-0.1696 0.202514,-0.49551 0.299176,-0.7205 0.09666,-0.225 0.167368,-0.3489 0.386649,-0.61063 0.219281,-0.26173 0.587019,-0.66107 1.05386,-1.04211 0.466841,-0.38105 1.03258,-0.74366 1.480551,-0.99384 0.44797,-0.25018 0.777977,-0.38787 1.204713,-0.53475 0.426735,-0.14689 0.950019,-0.30294 1.570067,-0.41766 0.620049,-0.11472 1.33666,-0.18817 2.142899,-0.19004 0.806239,-0.002 1.683186,0.0663 2.279624,0.13748 0.596438,0.0712 0.90289,0.14467 1.383784,0.29848 0.480894,0.15382 1.136214,0.38791 1.725542,0.65191 0.589328,0.26401 1.112643,0.55777 1.598206,0.90671 0.485563,0.34894 0.933443,0.75287 1.209141,1.0306 0.275694,0.27773 0.379454,0.42926 0.501924,0.70469 0.12247,0.27542 0.26391,0.67476 0.34164,0.91804 0.0777,0.24328 0.0919,0.33048 0.62229,-0.044 0.5304,-0.37451 1.57702,-1.20989 2.23002,-1.70794 0.65301,-0.49804 0.91234,-0.65871 1.08958,-0.7611 0.17724,-0.1024 0.28017,-0.15015 0.35548,-0.19832 0.0753,-0.0482 0.12708,-0.0986 0.11573,-0.13751 -0.0114,-0.0389 -0.0869,-0.0664 -0.12495,-0.0803 -0.0381,-0.0139 -0.0382,-0.0138 -0.57526,-0.37163 z"
       style="display:inline;opacity:1;fill:#4f5660;fill-opacity:1;stroke:#000000;stroke-width:0.0354456;stroke-linecap:butt;stroke-linejoin:miter;stroke-miterlimit:4;stroke-dasharray:none;stroke-opacity:1" />
    <path
       id="path871"
       d="m 102.52324,126.38702 v 1.36319 l 0.52006,1.83059 0.92011,1.55793 1.48017,1.20742 1.20015,0.62315 1.36016,0.0779 1.7202,-0.42842 0.96012,-0.77898 0.12,-0.54527 0.40463,-0.90682 0.55161,-0.86753 0.29701,-0.71605 0.0707,-0.39934 0.56576,-0.49573 0.26872,-0.59214 0.0141,-0.48195 0.36775,-0.20658 0.69304,-0.96393 0.0283,-0.55082 0.0707,-0.31671 h 0.099 l 0.0707,-0.0413 0.11315,-0.014 0.66477,-0.83999 0.0141,-0.79868 0.70719,-0.31673 0.4526,-0.67476 0.0707,-0.61965 0.38188,-0.3718 0.5799,-0.64722 0.0566,-0.5508 0.57989,-0.6059 0.4526,-0.71607 0.38189,-0.7849 0.25458,-0.44066 0.0566,-1.26687 -1.11736,0.59212 -1.61239,0.11029 -1.17393,-0.68851 -0.099,-0.68853 0.0707,-0.6472 0.1556,-0.59212 0.24044,-0.30297 0.29702,-0.26163 0.24045,-0.22034 -1.0325,0.11005 -1.01835,0.68853 -1.56997,1.50097 -0.16972,0.12405 -0.94763,1.04653 -0.0566,0.24787 -0.49503,0.0963 -0.91935,1.00524 -0.0849,0.35802 -0.43846,0.0275 -1.06078,1.19801 -0.0566,0.41312 -0.46675,0.0275 -0.96177,1.14294 -0.14145,0.39934 -0.16972,0.014 -0.21216,0.0825 -0.33946,0.2341 -0.0849,0.24785 -0.26873,0.28919 -0.12728,0.22034 -0.11316,0.12381 -0.11316,0.0413 -0.14747,0.14526 -0.53506,0.29211 -0.8151,0.57934 -0.9245,0.7288 -0.2256,0.77735 z"
       style="display:inline;opacity:1;fill:#0f1822;fill-opacity:1;stroke:#000000;stroke-width:0.0472608;stroke-linecap:butt;stroke-linejoin:miter;stroke-miterlimit:4;stroke-dasharray:none;stroke-opacity:1" />
    <path
       id="path873"
       d="m 109.72409,132.61878 -0.78957,0.85625 -2.39596,0.32774 -2.07914,-0.2313 -2.57418,-0.75186 -1.12867,-0.9061 -0.27957,-0.36674 -0.063,-0.19773 0.24503,-0.74295 0.17502,-1.04965 0.07,-1.3223 -0.042,-0.77021 -0.042,-0.42942 0.035,-0.58617 -0.007,-0.35443 v -0.0818 l 0.077,0.0751 0.0543,0.007 0.099,-0.0338 0.24999,-0.15179 0.23381,-0.16881 0.37804,-0.27944 0.42705,-0.33399 0.43662,-0.33261 -0.22559,0.77735 -0.055,0.81623 v 1.3632 l 0.52006,1.83056 0.92011,1.55793 1.48017,1.20742 1.20014,0.62318 1.36016,0.0779 z"
       style="display:inline;opacity:1;fill:#010712;fill-opacity:1;stroke:#000000;stroke-width:0.0472608;stroke-linecap:butt;stroke-linejoin:miter;stroke-miterlimit:4;stroke-dasharray:none;stroke-opacity:1" />
    <path
       id="path875"
       d="m 110.68421,131.83981 c 0.0101,0.79126 0.0194,1.58192 0.028,2.37195 -0.2794,0.83673 -0.55943,1.67281 -0.84009,2.50828 -0.56878,0.96397 -1.15684,1.92729 -1.73621,2.89 -1.2222,1.03664 -2.44499,2.07266 -3.66843,3.10807 -0.86749,0.45504 -1.73558,0.90943 -2.60431,1.36321 -0.24207,0.0914 -0.48476,0.18234 -0.72809,0.27264 0.17801,-0.17207 0.31801,-0.34473 0.47606,-0.51802 0.19667,-0.46288 0.39268,-0.92636 0.58807,-1.39047 -0.48476,-1.34442 -0.97015,-2.68943 -1.45617,-4.03506 -0.51278,-0.74461 -1.026159,-1.4898 -1.540182,-2.23565 -0.503435,-0.5992 -1.007485,-1.19899 -1.512182,-1.79941 -0.116056,-0.10842 -0.232734,-0.21755 -0.350044,-0.32716 0.0057,-0.002 0.01078,-0.005 0.01509,-0.009 0.183807,-0.0797 0.366964,-0.15995 0.549489,-0.241 0.18874,-0.12311 0.376861,-0.24678 0.564337,-0.3711 0.267957,-0.21778 0.535267,-0.43637 0.801953,-0.65547 0.08974,-0.0732 0.172239,-0.14713 0.257417,-0.22174 0.208545,-0.22431 0.423068,-0.44922 0.633642,-0.67475 0.0845,-0.17464 0.16829,-0.34996 0.25148,-0.52586 0.0216,0.0665 0.0427,0.13244 0.063,0.19772 0.0938,0.12288 0.18701,0.24513 0.27957,0.36677 0.37686,0.30265 1.12868,0.90608 1.12868,0.90608 l 2.57417,0.75185 2.07914,0.2313 2.39596,-0.32773 0.78957,-0.85625 z"
       style="display:inline;opacity:1;fill:#6a717f;fill-opacity:1;stroke:#000000;stroke-width:0.0472608;stroke-linecap:butt;stroke-linejoin:miter;stroke-miterlimit:4;stroke-dasharray:none;stroke-opacity:1" />
    <path
       style="display:inline;opacity:1;fill:#131c25;fill-opacity:1;stroke:#000000;stroke-width:0.0472608;stroke-linecap:butt;stroke-linejoin:miter;stroke-miterlimit:4;stroke-dasharray:none;stroke-opacity:1"
       d="m 101.13507,144.35396 c 0,0 0.47606,-0.51802 0.47606,-0.51802 0,0 0.58806,-1.39047 0.58806,-1.39047 0,0 -1.45616,-4.03506 -1.45616,-4.03506 0,0 -1.540186,-2.23565 -1.540186,-2.23565 0,0 -1.512183,-1.79941 -1.512183,-1.79941 0,0 -0.334954,-0.33648 -0.334954,-0.33648 -0.29106,0.13683 -0.581841,0.27352 -0.995671,0.41822 -0.41383,0.1447 -0.950549,0.29725 -1.47557,0.41249 -0.52502,0.11524 -1.038399,0.19313 -1.460089,0.24508 -0.42169,0.0519 -0.75172,0.0779 -1.030043,0.0861 -0.278323,0.008 -0.505022,-0.002 -0.880054,-0.0356 -0.375033,-0.034 -0.8984,-0.0925 -1.401789,-0.16874 -0.50339,-0.0763 -0.986784,-0.17039 -1.532783,0.40555 -0.545999,0.57595 -1.138375,1.7903 -1.711781,3.11947 -0.573405,1.32916 -1.120126,2.75724 -1.460438,3.7908 -0.340312,1.03356 -0.473096,1.66702 -0.544252,2.06283 -0.07116,0.39582 -0.08017,0.551 0.695966,0.72706 0.776136,0.17606 2.336646,0.37344 3.487002,0.49273 1.150356,0.1193 1.89053,0.16057 2.750918,0.1582 0.860388,-0.002 1.841009,-0.0483 2.793343,-0.13555 0.952333,-0.0873 1.876369,-0.21577 2.682547,-0.34889 0.806178,-0.13313 1.494496,-0.27083 2.118569,-0.4241 0.624078,-0.15326 1.183998,-0.32207 1.463748,-0.40641 0.27975,-0.0843 0.27974,-0.0841 0.27974,-0.0841 z"
       id="path845"
       inkscape:path-effect="#path-effect847"
       inkscape:original-d="m 101.13507,144.35396 0.47606,-0.51802 0.58806,-1.39047 -1.45616,-4.03506 -1.540186,-2.23565 -1.512183,-1.79941 -0.334954,-0.33648 c 0,0 -0.581489,0.27427 -0.873181,0.41048 -0.536106,0.15319 -1.072828,0.30573 -1.610191,0.45766 -0.51277,0.0786 -1.026154,0.15645 -1.540184,0.23367 -0.329411,0.0266 -0.659446,0.0525 -0.990118,0.0779 -0.226051,-0.009 -0.45275,-0.0187 -0.680076,-0.0291 -0.522773,-0.0578 -1.046155,-0.11611 -1.570186,-0.17533 -0.482765,-0.0935 -0.966146,-0.1877 -1.450173,-0.28239 -0.612782,1.24377 -1.199511,2.46088 -1.800209,3.69038 -0.546111,1.42875 -1.092831,2.85683 -1.640198,4.28433 -0.146063,0.6368 -0.266065,1.27294 -0.400049,1.90847 -0.0084,0.15599 -0.01748,0.31116 -0.02706,0.46579 1.561194,0.19796 3.121698,0.39538 4.681599,0.59212 0.740841,0.042 1.481019,0.0832 2.220576,0.12381 0.98129,-0.0452 1.961908,-0.0912 2.941913,-0.1378 0.924711,-0.12801 1.84876,-0.25643 2.772186,-0.38556 0.688977,-0.1371 1.377299,-0.27478 2.064997,-0.41312 0.560547,-0.16811 1.120447,-0.33699 1.679727,-0.50641 z" />
    <path
       style="display:inline;opacity:1;fill:#3b3f4a;fill-opacity:1;stroke:#000000;stroke-width:0.0472608;stroke-linecap:butt;stroke-linejoin:miter;stroke-miterlimit:4;stroke-dasharray:none;stroke-opacity:1"
       d="m 84.185728,144.54651 c -0.708559,-0.2588 -2.126441,-0.77667 -3.448821,-1.46393 -1.322379,-0.68726 -2.549161,-1.5441 -3.562728,-2.52421 -1.013567,-0.98012 -1.813648,-2.08364 -2.402851,-3.18751 -0.589204,-1.10387 -0.971227,-2.21969 -1.169373,-2.81016 -0.198146,-0.59047 -0.208653,-0.63656 -0.215389,-1.13318 -0.0067,-0.49662 -0.0067,-1.43138 0.01655,-1.94764 0.02328,-0.51626 0.06999,-0.61368 0.146654,-0.88296 0.07667,-0.26927 0.183342,-0.71067 0.403365,-1.25606 0.220023,-0.54539 0.553389,-1.19451 0.820098,-1.67167 0.266709,-0.47717 0.466731,-0.78226 0.640303,-1.03303 0.173572,-0.25078 0.322906,-0.45017 0.397756,-0.54901 0.07485,-0.0988 0.158295,-0.0808 0.200724,-0.0716 0,0 0.431385,0 0.431385,0 0,0 1.668971,-0.0413 1.668971,-0.0413 0,0 1.287086,0 1.287086,0 0,0 1.018359,0 1.018359,0 0,0 0.997137,-0.007 0.997137,-0.007 0,0 1.046637,-0.007 1.046637,-0.007 0,0 1.032503,-0.021 1.032503,-0.021 0,0 0.02131,0 0.02131,0 -0.08251,0.22492 -0.165135,0.45017 -0.242681,0.73373 -0.07755,0.28356 -0.151087,0.63 -0.197045,0.85605 -0.04596,0.22604 -0.06484,0.334 -0.08251,0.45455 -0.01767,0.12056 -0.03415,0.25356 -0.03764,0.45559 -0.0035,0.20203 0.0059,0.47283 0.02386,0.67823 0.01794,0.20541 0.04346,0.34091 0.07412,0.49012 0.03066,0.14921 0.066,0.3098 0.147393,0.55769 0.08139,0.24789 0.208676,0.58295 0.313198,0.81768 0.104523,0.23474 0.18613,0.36917 0.320954,0.56366 0.134824,0.19449 0.321115,0.4468 0.480191,0.64063 0.159076,0.19384 0.292174,0.33036 0.459033,0.47792 0.166859,0.14756 0.370681,0.30908 0.600522,0.47198 0.229842,0.1629 0.486815,0.32816 0.759085,0.48648 0.272271,0.15831 0.559882,0.30979 0.794434,0.42682 0.234552,0.11702 0.41604,0.19963 0.604643,0.27765 0.188604,0.078 0.384278,0.15147 0.628255,0.23176 0.243978,0.0803 0.536274,0.16751 0.755472,0.22713 0.219197,0.0596 0.365376,0.0917 0.44655,0.11128 0.08117,0.0196 0.0978,0.0266 0.04357,0.0391 -0.05423,0.0125 -0.179183,0.0308 -0.303161,0.0836 -0.123978,0.0528 -0.246551,0.13998 -0.329057,0.2008 -0.08251,0.0608 -0.124963,0.0953 -0.186918,0.16573 -0.06195,0.0705 -0.145627,0.17986 -0.234006,0.30148 -0.08838,0.12162 -0.182706,0.25709 -0.324162,0.49582 -0.141456,0.23873 -0.330037,0.58068 -0.61764,1.19581 -0.287603,0.61513 -0.674198,1.50332 -0.960609,2.18382 -0.28641,0.6805 -0.472631,1.15327 -0.671824,1.7087 -0.199192,0.55543 -0.411352,1.19346 -0.571641,1.73398 -0.16029,0.54052 -0.268723,0.98346 -0.32168,1.24518 -0.05296,0.26172 -0.05055,0.34216 -0.04214,0.39835 0.0084,0.0562 0.02259,0.0883 0.03192,0.10991 0.0093,0.0216 0.01423,0.0335 0.01643,0.0389 0.0022,0.005 0.002,0.006 -0.706593,-0.2529 z"
       id="path849"
       inkscape:path-effect="#path-effect851"
       inkscape:original-d="m 84.894288,144.8053 c -1.417243,-0.51725 -2.835128,-1.03511 -4.253638,-1.5536 -1.226199,-0.85627 -2.452988,-1.7131 -3.68043,-2.57058 -0.79948,-1.10296 -1.59956,-2.20648 -2.400287,-3.31062 -0.379419,-1.10296 -0.759454,-2.21946 -1.140133,-3.33012 -0.01269,-0.0709 -0.02603,-0.11635 -0.03997,-0.17534 6.32e-4,-0.93414 6.32e-4,-1.8689 0,-2.80428 0.04727,-0.0968 0.09398,-0.19422 0.140028,-0.29211 0.107314,-0.44082 0.213982,-0.88222 0.320034,-1.32425 0.334012,-0.64854 0.667375,-1.29767 1.000121,-1.94743 0.200666,-0.30446 0.400678,-0.60956 0.600066,-0.91528 0.148865,-0.19493 0.297064,-0.39517 0.444646,-0.59369 0.005,-0.0163 0.127287,0.0275 0.127287,0.0275 h 0.431385 l 1.668971,-0.0413 h 1.287086 1.018359 l 0.997137,-0.007 1.046637,-0.007 1.032503,-0.021 h 0.02131 c 0,0 -0.164384,0.45045 -0.247519,0.67476 -0.07245,0.34258 -0.145513,0.68913 -0.219227,1.03277 -0.0182,0.10842 -0.03707,0.21638 -0.05659,0.32361 -0.01581,0.13384 -0.03238,0.26683 -0.04948,0.39934 0.01006,0.27145 0.01964,0.54224 0.02826,0.81246 0.02656,0.1406 0.05252,0.27602 0.07779,0.41309 0.03599,0.16135 0.07137,0.32193 0.106069,0.48198 0.127934,0.33571 0.255224,0.67076 0.381884,1.00524 0.08224,0.135 0.163833,0.26944 0.244794,0.40325 0.190128,0.25408 0.374902,0.50751 0.5614,0.76035 0.132652,0.13383 0.264655,0.27142 0.396028,0.40622 0.203372,0.15901 0.406088,0.32193 0.608182,0.48197 0.257589,0.16578 0.51453,0.33109 0.770839,0.49573 0.288232,0.15202 0.575817,0.30355 0.862775,0.45441 0.182154,0.0832 0.363659,0.16578 0.544534,0.24788 0.196283,0.0741 0.391944,0.14759 0.586968,0.22034 0.292945,0.0879 0.585244,0.1751 0.876915,0.26163 0.146782,0.0326 0.29294,0.0648 0.438462,0.0963 0.017,0.007 0.03365,0.014 0.04948,0.021 -0.124317,0.0187 -0.249236,0.0373 -0.374811,0.055 -0.121947,0.0879 -0.244524,0.1751 -0.367735,0.26163 -0.04181,0.035 -0.08423,0.0695 -0.127287,0.10329 -0.08188,0.10609 -0.164384,0.21638 -0.247512,0.32361 -0.09366,0.13594 -0.18795,0.27143 -0.282877,0.40624 -0.18795,0.34257 -0.376536,0.68452 -0.565755,1.02588 -0.385971,0.88882 -0.772563,1.77701 -1.159787,2.66457 -0.185603,0.47341 -0.371823,0.94618 -0.558683,1.41836 -0.211538,0.63863 -0.423678,1.27666 -0.636475,1.91406 -0.107793,0.44357 -0.216232,0.88651 -0.325307,1.32885 0.0031,0.0809 0.005,0.16135 0.0072,0.24097 0.01485,0.0326 0.02888,0.0648 0.04246,0.0963 0.005,0.0117 0.01006,0.0236 0.01413,0.0345 z" />
    <path
       id="path850"
       d="m 78.320379,132.54088 0.880105,0.83739 0.620075,0.27264 0.440052,0.0975 0.440052,0.0779 0.500059,0.0975 h 0.260028 l 0.520062,-0.0187 0.08001,1.11004 -0.280032,2.53165 0.02012,1.86953 0.06001,0.77897 -0.920111,0.52581 -0.900102,0.0779 -0.560072,-0.0389 -0.520062,-0.0975 -0.46005,-0.27264 -0.360049,-0.4674 -0.220017,-0.33105 -0.120007,-0.33107 -0.06002,-0.3895 -0.02012,-2.51215 0.08001,-3.21325 0.140004,-1.01268 z"
       style="display:inline;opacity:1;fill:#2b323c;fill-opacity:1;stroke:#000000;stroke-width:0.0472608;stroke-linecap:butt;stroke-linejoin:miter;stroke-miterlimit:4;stroke-dasharray:none;stroke-opacity:1" />
    <path
       id="path852"
       d="m 81.980812,133.90396 1.160135,-0.56463 0.380047,-0.72055 -0.480054,-0.77897 -0.680083,-0.93478 -0.660077,-0.38948 -0.700087,-0.11681 -0.660079,-0.0975 -0.06002,0.11681 0.120006,0.2337 0.160002,0.48685 v 0.0975 l 0.220016,0.0585 0.220017,0.0389 0.160025,0.0779 0.10001,0.0389 0.200019,0.11681 0.260035,0.17534 0.10001,0.15576 0.08001,0.17533 v 0.15576 l 0.03997,0.3116 -0.140028,0.15575 -0.06001,0.0585 -0.08001,0.2921 0.03999,0.35054 z"
       style="display:inline;opacity:1;fill:#141d26;fill-opacity:1;stroke:#000000;stroke-width:0.0472608;stroke-linecap:butt;stroke-linejoin:miter;stroke-miterlimit:4;stroke-dasharray:none;stroke-opacity:1" />
    <path
       id="path854"
       d="m 83.520994,132.61878 0.100009,0.60369 0.03997,0.50634 0.160025,1.36319 -0.02012,2.45377 -0.02012,1.28529 -0.260028,0.33107 -0.640074,0.46737 -1.019992,0.56463 -0.08013,-2.64848 0.280032,-2.53164 -0.08001,-1.11005 1.160135,-0.56463 z"
       style="display:inline;opacity:1;fill:#111a23;fill-opacity:1;stroke:#000000;stroke-width:0.0472608;stroke-linecap:butt;stroke-linejoin:miter;stroke-miterlimit:4;stroke-dasharray:none;stroke-opacity:1" />
    <path
       id="path856"
       d="m 80.560602,131.23608 -0.620032,-0.0389 -0.260032,0.21428 -0.280032,0.19469 v 0.56477 l 0.420053,0.37 0.340037,0.0585 0.300037,0.0187 0.400044,0.1364 0.200019,0.0389 0.160025,0.0389 0.03997,0.27264 0.02012,0.33107 0.459951,-0.68168 0.200044,-0.21428 -0.03997,-0.31158 v -0.15575 l -0.08001,-0.17534 -0.10001,-0.15575 -0.260035,-0.17534 -0.300032,-0.15575 -0.160025,-0.0779 -0.220017,-0.0389 z"
       style="display:inline;opacity:1;fill:#ccccce;fill-opacity:1;stroke:#000000;stroke-width:0.0472608;stroke-linecap:butt;stroke-linejoin:miter;stroke-miterlimit:4;stroke-dasharray:none;stroke-opacity:1" />
    <path
       id="path858"
       d="m 81.980558,133.90396 -0.779836,0.0186 -1.380163,-0.27264 -0.620075,-0.27263 -1.260145,-1.24645 0.384147,-1.06936 0.381883,-0.28917 0.43846,-0.23412 0.325307,-0.0825 0.81046,-0.0385 0.280006,0.72055 v 0.0975 l -0.620032,-0.0389 -0.540064,0.40895 v 0.56476 l 0.420053,0.37001 0.640074,0.0781 0.760086,0.21428 0.06006,0.60371 0.459947,-0.68166 -0.08008,0.29204 0.03997,0.35054 z"
       style="display:inline;opacity:1;fill:#484f59;fill-opacity:1;stroke:#000000;stroke-width:0.0472608;stroke-linecap:butt;stroke-linejoin:miter;stroke-miterlimit:4;stroke-dasharray:none;stroke-opacity:1" />
    <path
       id="path862"
       d="m 84.250741,133.36211 0.947638,0.75736 1.018352,0.70232 0.05659,0.46816 -0.127287,0.4269 -0.198008,0.19283 -0.268726,0.82622 -0.183878,0.38556 -0.509175,0.24787 -0.551613,0.26163 -0.282877,0.39934 0.02833,-1.51472 0.099,-0.68853 -0.02833,-0.6059 -0.268726,-0.6059 -0.08487,-0.26163 0.099,-0.24786 0.169725,-0.6059 z"
       style="display:inline;opacity:1;fill:#09121b;fill-opacity:1;stroke:#000000;stroke-width:0.0472608;stroke-linecap:butt;stroke-linejoin:miter;stroke-miterlimit:4;stroke-dasharray:none;stroke-opacity:1" />
    <path
       id="path992"
       d="m 73.359794,133.86514 0.120007,11.10029 c 0,0 0.347345,1.24699 0.520063,1.86953 0.547379,0.98733 1.094096,1.97401 1.640196,2.96009 0.947429,1.00031 1.894186,1.99998 2.840334,2.99904 1.120787,0.63679 2.240897,1.27293 3.360397,1.90847 1.454165,0.48099 2.907645,0.96136 4.360512,1.44109 1.174133,0.16951 2.347583,0.33818 3.520417,0.50634 0.414028,0.0266 0.827397,0.0525 1.240145,0.0779 0.707399,0.0266 1.41414,0.0525 2.120252,0.0779 1.400832,-0.11635 2.800968,-0.23316 4.200499,-0.35054 1.894231,-0.62257 3.787754,-1.24574 5.680674,-1.86953 1.37416,-1.01207 2.74762,-2.0247 4.12048,-3.03798 0.65406,-0.96012 1.30746,-1.92085 1.96024,-2.88218 0.45403,-0.86926 0.9074,-1.73908 1.36016,-2.60955 0.14731,-0.34993 0.44005,-1.16845 0.44005,-1.16845 l 0.12001,-0.3895 -0.25204,-10.28627 -0.84009,2.50828 -1.73621,2.88997 -3.66844,3.10809 -2.60431,1.3632 -0.72808,0.27263 -1.05211,0.30965 -1.580194,0.36026 -1.670196,0.3116 -2.210266,0.2921 -2.000231,0.11682 -2.100253,-0.0187 -1.640191,-0.1364 -1.780212,-0.21428 -1.780212,-0.33107 -0.480054,-0.23368 -3.380401,-1.34372 -2.020238,-1.07108 -1.760207,-1.34373 -1.760208,-1.889 -1.14014,-1.85006 -0.580066,-1.22686 -0.660079,-1.67479 z"
       style="display:inline;opacity:1;fill:#31384a;fill-opacity:1;stroke:#000000;stroke-width:0.0472608;stroke-linecap:butt;stroke-linejoin:miter;stroke-miterlimit:4;stroke-dasharray:none;stroke-opacity:1" />
    <path
       id="path994"
       d="m 104.46746,142.71811 0.19279,10.6248 2.42352,-1.79517 1.96023,-2.88219 1.36016,-2.60954 0.56006,-1.55795 -0.25204,-10.28628 -0.84008,2.50826 -1.73621,2.89 z"
       style="display:inline;opacity:1;fill:#777a88;fill-opacity:1;stroke:#000000;stroke-width:0.0472608;stroke-linecap:butt;stroke-linejoin:miter;stroke-miterlimit:4;stroke-dasharray:none;stroke-opacity:1" />
    <path
       id="path998"
       d="m 116.07431,113.40885 -0.53746,0.48195 -0.24045,0.30297 -0.15559,0.59212 -0.0707,0.64719 0.099,0.68853 1.17393,0.68851 1.6124,-0.11029 1.11736,-0.59211 0.15559,-0.31671 -0.14144,-0.1378 0.0141,-0.20658 0.0707,-0.16532 0.19801,-0.30295 4.17242,-6.12782 3.45109,-5.6596 -0.0141,-3.8144 -1.86698,0.1378 -2.31958,3.85571 -1.72555,2.82291 -1.52753,2.40982 -1.41439,2.10687 -0.67889,1.08787 z"
       style="display:inline;opacity:1;fill:#313c4e;fill-opacity:1;stroke:#000000;stroke-width:0.0472608;stroke-linecap:butt;stroke-linejoin:miter;stroke-miterlimit:4;stroke-dasharray:none;stroke-opacity:1" />
    <path
       id="path1001"
       d="m 125.11219,99.51455 0.59405,-0.798679 0.90521,-0.481949 0.33945,-0.01399 0.0283,1.156678 z"
       style="display:inline;opacity:1;fill:#202c3b;fill-opacity:1;stroke:#000000;stroke-width:0.0472608;stroke-linecap:butt;stroke-linejoin:miter;stroke-miterlimit:4;stroke-dasharray:none;stroke-opacity:1" />
    <path
       id="path1063"
       d="m 126.9509,98.220165 1.37539,0.06552 1.52018,0.136401 0.12001,-0.623177 0.24003,-0.4674 0.42005,-0.467377 0.66007,-0.194691 1.02012,-0.175339 h 0.44006 l 0.54006,0.03894 0.16003,0.214277 0.58006,-0.175339 0.58007,-0.155753 0.60008,-0.07788 0.28003,0.01865 0.18002,0.03894 0.18002,0.03894 0.28003,0.194692 0.96012,-0.311577 0.50006,-0.09746 h 0.46006 l 0.42003,-0.01865 0.34005,0.09746 0.26003,0.03894 0.30003,-0.116815 0.78011,-0.194691 1.04011,0.05852 0.56007,0.1364 0.64007,0.194692 0.74009,-0.175339 0.8401,-0.09746 1.08013,-0.3895 -0.90011,0.876345 -0.46005,1.226885 -0.1801,0.954245 -0.11998,1.012654 0.08,1.129512 0.36004,1.38266 0.26004,0.79845 0.24001,0.77897 0.11998,0.40895 -0.9401,-0.19469 -0.8001,0.0187 -0.96011,-0.25317 -0.32002,-0.0187 h -0.58009 l -0.40004,0.0389 -0.54007,-0.1364 h -0.34004 l -0.34005,0.0389 -0.26001,-0.1364 h -0.72009 l -0.52007,-0.0779 -0.28003,0.0187 -0.98011,-0.0975 -0.40005,-0.19469 -0.8201,0.0585 -0.42005,-0.25317 -0.58006,0.17534 -0.52007,-0.11682 -0.54006,-0.1364 -0.52006,-0.0187 -0.42005,0.0779 -0.56007,-0.0975 -0.72008,0.0779 -0.54007,-0.27264 -0.22001,-0.35054 -0.14001,-0.58421 -0.16002,-0.44791 h -1.7202 l -0.38005,0.27264 -0.14,0.17534 -0.20002,0.40897 -0.18003,0.21428 -0.29287,0.67962 -0.0141,-3.81439 -0.0129,-0.721129 -0.07,-0.16065 -0.065,-0.199588 -0.005,-0.07788 z"
       style="display:inline;opacity:1;fill:#313c4e;fill-opacity:1;stroke:#000000;stroke-width:0.0472608;stroke-linecap:butt;stroke-linejoin:miter;stroke-miterlimit:4;stroke-dasharray:none;stroke-opacity:1" />
    <path
       id="path1071"
       d="m 165.11064,95.306038 0.72007,0.370101 0.74009,0.876346 0.38006,1.480053 0.36002,1.616361 0.0601,0.525811 0.04,0.66211 -0.11998,0.87635 -0.1401,0.72054 -0.42004,0.89582 -0.24004,0.52581 -0.36004,0.52578 -0.38004,0.5453 -0.46006,0.21428 -0.68005,0.23358 -0.36004,-0.17534 -0.58009,-0.52581 -0.70006,-0.81791 -0.52007,-1.28532 -0.1801,-1.22686 -0.0599,-0.9153 v -0.740019 l 0.22009,-1.246354 0.34002,-1.051615 0.32005,-0.759484 0.44006,-0.642646 0.62006,-0.408969 z"
       style="display:inline;opacity:1;fill:#2a2529;fill-opacity:1;stroke:#000000;stroke-width:0.0472608;stroke-linecap:butt;stroke-linejoin:miter;stroke-miterlimit:4;stroke-dasharray:none;stroke-opacity:1" />
    <path
       id="path1065"
       d="m 145.04827,95.754039 1.10013,-0.428415 18.96224,-0.01865 -0.96012,0.272638 -0.62008,0.408946 -0.44004,0.642646 -0.32005,0.759507 -0.34002,1.051592 -0.22009,1.246353 v 0.740034 l 0.0601,0.91529 0.1801,1.22688 0.52004,1.28529 0.7001,0.81792 0.58006,0.5258 0.36004,0.17534 -18.62222,-0.27264 -1.54016,-0.77897 -0.9801,-3.36903 -0.08,-1.129513 0.11998,-1.012653 0.1801,-0.954246 0.46005,-1.226884 z"
       style="display:inline;opacity:1;fill:#272324;fill-opacity:1;stroke:#000000;stroke-width:0.0472608;stroke-linecap:butt;stroke-linejoin:miter;stroke-miterlimit:4;stroke-dasharray:none;stroke-opacity:1" />
    <path
       id="path1073"
       d="m 166.75082,98.402546 -0.56007,-1.012654 -0.44005,-0.370031 -0.46003,0.07788 -0.44006,0.253169 -0.30003,0.545277 -0.36004,0.642669 -0.36005,0.506315 0.08,0.798446 0.05,1.256093 0.24002,0.77896 0.18009,0.85687 0.39089,0.70355 0.79206,0.33049 0.83729,-0.37192 0.49006,-0.96397 0.26004,-1.11002 -0.17004,-1.441091 -0.0299,-0.418716 z"
       style="display:inline;opacity:1;fill:#78716b;fill-opacity:1;stroke:#000000;stroke-width:0.0472608;stroke-linecap:butt;stroke-linejoin:miter;stroke-miterlimit:4;stroke-dasharray:none;stroke-opacity:1" />
    <path
       id="path1067"
       d="m 164.35054,99.47363 0.15997,0.70108 -0.24001,0.52578 -0.0192,0.4674 0.44006,0.0585 0.22009,-0.0389 0.24001,-0.15576 0.11998,-0.17534 0.11999,-0.27263 v -0.1947 l 0.0192,-0.33107 -0.08,-0.408965 -0.15998,-0.331045 -0.28003,-0.155754 h -0.1801 -0.22008 l -0.15998,0.07788 -0.08,0.07788 z"
       style="display:inline;opacity:1;fill:#a59c9a;fill-opacity:1;stroke:#000000;stroke-width:0.0472608;stroke-linecap:butt;stroke-linejoin:miter;stroke-miterlimit:4;stroke-dasharray:none;stroke-opacity:1" />
    <path
       id="path1069"
       d="m 164.49054,99.162076 0.32005,-0.9348 0.15998,-0.214277 0.11998,-0.07788 0.30006,-0.07788 0.30002,-0.01865 0.1801,0.01865 0.24004,0.116815 0.18009,0.408945 0.15998,0.56477 0.08,0.681584 0.1401,0.564767 0.08,0.60368 v 0.52581 l -0.11998,0.72055 -0.28003,0.33107 -0.30005,0.2921 -0.38005,0.17534 -0.48005,-0.0389 -0.24003,-0.33107 -0.19998,-0.62315 -0.0601,-0.62318 0.22009,-0.0389 0.36005,-0.33105 0.11998,-0.27264 0.0192,-0.52581 -0.08,-0.408938 -0.15998,-0.331069 -0.28003,-0.155754 z"
       style="display:inline;opacity:1;fill:#291f1e;fill-opacity:1;stroke:#000000;stroke-width:0.0472608;stroke-linecap:butt;stroke-linejoin:miter;stroke-miterlimit:4;stroke-dasharray:none;stroke-opacity:1" />
  </g>
</svg>
