<?xml version='1.0' encoding='UTF-8' standalone='no'?>
<!-- Created with Fritzing (http://www.fritzing.org/) -->
<svg xmlns:svg='http://www.w3.org/2000/svg' xmlns='http://www.w3.org/2000/svg' version='1.2' baseProfile='tiny' x='0in' y='0in' width='1.94288in' height='1.16213in' viewBox='0 0 139.887 83.6733' >
<path stroke='#666666' stroke-width='3.00001' stroke-linecap='round' stroke-linejoin='round' fill='none' d='M131.187,82.1733L138.387,82.1733' />
<path stroke='#ea2600' stroke-width='3.00001' stroke-linecap='round' stroke-linejoin='round' fill='none' d='M131.187,67.7742L138.387,67.7742' />
<g partID='854158950'><g xmlns="http://www.w3.org/2000/svg" id="breadboard">
 <g xmlns="http://www.w3.org/2000/svg" id="g45">
  <path xmlns="http://www.w3.org/2000/svg" d="M101.975,75.49c1.571,0.571,1.388,6.21,-0.215,6.684c-0.949,0.281,-1.754,-3.353,-1.754,-3.353S100.751,75.044,101.975,75.49z" fill="#333333"/>
  <rect xmlns="http://www.w3.org/2000/svg" x="97.046" y="78.488" fill="none" height="3.115" id="connector0pin" width="3.428"/>
  <g xmlns="http://www.w3.org/2000/svg" stroke-width="3" fill="none" id="connector0leg" stroke="#666666" stroke-linecap="round" y2="82.173" stroke-miterlimit="10" x1="131.187" y1="82.173" x2="138.387"/>
  <rect xmlns="http://www.w3.org/2000/svg" x="97.046" y="75.373" fill="none" height="3.114" id="connector1pin" width="3.428"/>
  <g xmlns="http://www.w3.org/2000/svg" stroke-width="3" fill="none" id="connector1leg" stroke="#EA2600" stroke-linecap="round" y2="67.774" stroke-miterlimit="10" x1="131.187" y1="67.774" x2="138.387"/>
  <path xmlns="http://www.w3.org/2000/svg" d="M100.006,76.929c0,0,12.28,4.511,20.12,-2.363c8.074,-7.079,11.061,-6.791,11.061,-6.791" stroke-width="3" fill="none" id="path6" stroke="#EA2600" stroke-linecap="round" stroke-miterlimit="10"/>
  <path xmlns="http://www.w3.org/2000/svg" d="M100.006,80.045c0,0,6.755,1.063,15.824,1.558c7.174,0.409,15.354,0.57,15.354,0.57" stroke-width="3" fill="none" id="path8" stroke="#666666" stroke-linecap="round" stroke-miterlimit="10"/>
  <g xmlns="http://www.w3.org/2000/svg" id="XMLID_98_">
   <path xmlns="http://www.w3.org/2000/svg" d="M65.871,18.422c-1.847,-0.067,-3.292,-1.614,-3.214,-3.465c0.061,-1.855,1.612,-3.292,3.456,-3.225c0.066,0.006,20.688,0.562,21.021,21.129c0.113,7.575,-2.33,13.643,-4.521,19.104c-2.692,6.677,-4.926,12.224,0.633,17.938c4.979,5.111,12.299,5.369,18.729,5.587c0,0,-1.42,1.442,-1.464,3.277c-0.032,1.318,1.249,3.406,1.249,3.406c-7.707,-0.268,-16.476,-0.569,-23.33,-7.627c-8.586,-8.816,-5.604,-16.215,-2.032,-25.105c1.955,-4.831,4.119,-10.209,4.019,-16.47C80.193,18.819,65.919,18.423,65.871,18.422z" fill="#363C4A" id="XMLID_34_"/>
   <g xmlns="http://www.w3.org/2000/svg" id="XMLID_97_">
    <g xmlns="http://www.w3.org/2000/svg" id="XMLID_93_">
     <g xmlns="http://www.w3.org/2000/svg" id="XMLID_91_">
      <polygon xmlns="http://www.w3.org/2000/svg" points="20.888,33.396,4.219,37.665,0,31.05,16.677,26.791" fill="#DFDFDF" id="XMLID_24_"/>
      <path xmlns="http://www.w3.org/2000/svg" d="M-0.036,30.992l1.573,-1.879l15.769,-4.237l4.676,7.01l-1.021,1.496l-0.093,-0.02l-4.188,-6.571L0.143,31.022C0.039,31.009,-0.036,30.992,-0.036,30.992z" fill="#B3B3B3" id="XMLID_23_"/>
     </g>
     <g xmlns="http://www.w3.org/2000/svg" id="XMLID_92_">
      <polygon xmlns="http://www.w3.org/2000/svg" points="27.068,16.645,10.398,20.915,6.18,14.298,22.85,10.029" fill="#DFDFDF" id="XMLID_22_"/>
      <path xmlns="http://www.w3.org/2000/svg" d="M6.144,14.241l1.578,-1.898L23.49,8.107l4.677,7.01l-1.034,1.503l-0.085,-0.009l-4.196,-6.583L6.333,14.264C6.21,14.247,6.144,14.241,6.144,14.241z" fill="#B3B3B3" id="XMLID_21_"/>
     </g>
    </g>
    <g xmlns="http://www.w3.org/2000/svg" id="XMLID_96_">
     <g xmlns="http://www.w3.org/2000/svg" id="XMLID_94_">
      <path xmlns="http://www.w3.org/2000/svg" d="M8.426,31.844L20.842,5.03c0,0,23.41,-6.146,25.08,-4.851c1.67,1.295,8.012,11.242,9.412,14.237c1.393,2.984,-2.897,12.125,-2.897,12.125l-13.082,8.851L16.51,41.35C16.51,41.35,11.481,38.485,8.426,31.844z" fill="#363C4A" id="XMLID_20_"/>
      <path xmlns="http://www.w3.org/2000/svg" d="M46.244,0.484c2.044,2.106,7.769,11.109,9.09,13.932c1.393,2.984,-2.897,12.125,-2.897,12.125l-12.991,8.793l-5.979,-9.128L46.244,0.484z" fill="#262533" id="XMLID_19_"/>
      <path xmlns="http://www.w3.org/2000/svg" d="M51.858,8.441c1.542,2.443,2.915,4.771,3.478,5.975c1.393,2.984,-2.897,12.125,-2.897,12.125l-13.082,8.851L16.51,41.35c0,0,-4.899,-2.787,-7.962,-9.265c4.044,-0.73,19.426,-3.572,23.933,-5.427c5.213,-2.144,14.164,-5.826,14.164,-5.826L51.858,8.441z" fill="#262533" id="XMLID_18_"/>
      <path xmlns="http://www.w3.org/2000/svg" d="M51.858,8.441c1.542,2.443,2.915,4.771,3.478,5.975c1.393,2.984,-2.897,12.125,-2.897,12.125l-12.991,8.793L33.5,26.251c5.274,-2.169,13.146,-5.419,13.146,-5.419L51.858,8.441z" fill="#1C1B25" id="XMLID_17_"/>
      <path xmlns="http://www.w3.org/2000/svg" d="M22.694,13.983c1.831,-3.302,4.602,-5.258,6.195,-4.379c1.604,0.89,1.418,4.275,-0.412,7.577c-1.813,3.307,-4.58,5.262,-6.185,4.372C20.698,20.675,20.875,17.278,22.694,13.983z" fill="#262533" id="XMLID_16_"/>
     </g>
     <g xmlns="http://www.w3.org/2000/svg" id="XMLID_95_">
      <path xmlns="http://www.w3.org/2000/svg" d="M51.045,27.061c-2.188,-0.884,-4.453,-5.511,-4.647,-6.741c-0.191,-1.23,3.072,-11.551,5.18,-12.224c0.396,-0.126,2.083,-0.356,3.056,-0.354C58.845,7.78,67.126,8.97,68.024,10.58c1.099,1.994,0.901,9.511,-1.082,10.474C65.143,21.929,53.033,27.881,51.045,27.061L51.045,27.061z" fill="#262533" id="XMLID_14_"/>
      <path xmlns="http://www.w3.org/2000/svg" d="M54.679,7.742c0.95,0.016,2.094,0.083,3.313,0.198c-1.471,1.621,-2.519,3.277,-3.204,5.022c-0.787,2.015,-1.105,4.164,-1.101,6.5c0.009,2.162,0.983,4.392,2.155,6.529c-0.942,0.347,-1.836,0.645,-2.581,0.85c-1.239,-2.317,-2.243,-4.769,-2.255,-7.359c-0.013,-2.669,0.371,-5.144,1.291,-7.5C52.878,10.516,53.656,9.111,54.679,7.742zM62.226,8.507c1.078,0.19,2.107,0.409,2.986,0.662c-0.589,0.55,-3.22,3.248,-3.063,7.642c0.065,2.029,0.744,4.066,1.547,5.802c-0.735,0.342,-1.563,0.724,-2.416,1.109c-0.928,-2.006,-1.722,-4.399,-1.803,-6.802C59.335,12.995,60.974,10.119,62.226,8.507z" fill="#1C1B25" id="XMLID_11_"/>
     </g>
    </g>
   </g>
   <g xmlns="http://www.w3.org/2000/svg" id="XMLID_1_">
    <g xmlns="http://www.w3.org/2000/svg" id="XMLID_60_">
     <g xmlns="http://www.w3.org/2000/svg" id="XMLID_79_">
      <path xmlns="http://www.w3.org/2000/svg" d="M28.533,22.981c0.083,0.212,0.188,0.411,0.316,0.593l-0.148,0.12c-0.11,-0.023,-0.225,0.04,-0.26,0.15c-0.034,0.116,0.027,0.242,0.146,0.279c0.117,0.036,0.242,-0.028,0.279,-0.145c0.008,-0.023,0.01,-0.047,0.011,-0.069l0.146,-0.116c0.147,0.168,0.316,0.319,0.504,0.446l0.158,-0.23c-0.4,-0.275,-0.712,-0.666,-0.895,-1.13L28.533,22.981z" fill="#1D262D" id="XMLID_87_"/>
      <path xmlns="http://www.w3.org/2000/svg" d="M28.596,20.789c-0.026,0.058,-0.051,0.114,-0.072,0.173l-0.223,-0.07c-0.021,-0.086,-0.085,-0.158,-0.175,-0.188c-0.142,-0.044,-0.288,0.033,-0.332,0.172c-0.044,0.14,0.033,0.287,0.171,0.332c0.091,0.028,0.185,0.007,0.251,-0.051l0.222,0.07c-0.066,0.258,-0.103,0.522,-0.098,0.79l0.28,-0.005c-0.011,-0.382,0.067,-0.755,0.229,-1.108c0.075,-0.167,0.169,-0.325,0.277,-0.472L28.9,20.266C28.783,20.428,28.68,20.604,28.596,20.789z" fill="#1D262D" id="XMLID_86_"/>
      <path xmlns="http://www.w3.org/2000/svg" d="M30.456,18.96c0.037,-0.117,-0.029,-0.242,-0.146,-0.278c-0.118,-0.037,-0.242,0.028,-0.276,0.145c-0.034,0.11,0.02,0.227,0.121,0.271l0.062,0.194c-0.208,0.075,-0.408,0.176,-0.597,0.3l0.151,0.232c0.413,-0.271,0.89,-0.415,1.372,-0.415L31.143,19.13c-0.225,0,-0.446,0.027,-0.662,0.081l-0.058,-0.188C30.438,19.004,30.448,18.983,30.456,18.96z" fill="#1D262D" id="XMLID_85_"/>
      <path xmlns="http://www.w3.org/2000/svg" d="M31.939,22.526c-0.051,0.133,-0.104,0.265,-0.164,0.394c-0.134,0.296,-0.281,0.572,-0.438,0.805c-0.08,0.121,-0.18,0.261,-0.292,0.382c0.784,-0.067,1.517,-0.555,1.869,-1.333c0.435,-0.959,0.154,-2.059,-0.605,-2.683c0.047,0.297,0.047,0.631,0.002,0.996C32.255,21.538,32.126,22.037,31.939,22.526z" fill="#1D262D" id="XMLID_84_"/>
      <path xmlns="http://www.w3.org/2000/svg" d="M29.104,21.02c-0.511,1.125,-0.027,2.446,1.069,2.945c0.144,0.065,0.292,0.113,0.444,0.146c0.265,-0.153,0.711,-0.773,1.061,-1.685c0.379,-0.993,0.483,-1.924,0.29,-2.568c-0.065,-0.027,-0.134,-0.052,-0.201,-0.073C30.715,19.462,29.57,19.993,29.104,21.02zM30.963,22.736c-0.154,0.342,-0.563,0.494,-0.901,0.339c-0.343,-0.155,-0.495,-0.561,-0.339,-0.902c0.154,-0.343,0.563,-0.494,0.901,-0.34C30.966,21.988,31.118,22.394,30.963,22.736zM31.379,21.008c-0.113,0.251,-0.412,0.363,-0.664,0.249c-0.252,-0.114,-0.362,-0.412,-0.25,-0.664c0.114,-0.251,0.412,-0.363,0.664,-0.249C31.381,20.458,31.494,20.756,31.379,21.008z" fill="#1D262D" id="XMLID_80_"/>
     </g>
     <path xmlns="http://www.w3.org/2000/svg" d="M32.167,15.932c-0.083,0.08,-0.229,0.223,-0.29,0.428c-0.063,0.195,-0.018,0.335,0.209,0.437l0.291,0.132l0.338,-0.748l0.576,0.261l-0.338,0.748l1.831,0.83l-0.295,0.649l-1.83,-0.831l-0.204,0.45l-0.576,-0.261l0.204,-0.45l-0.298,-0.135c-0.563,-0.256,-0.801,-0.725,-0.543,-1.286c0.098,-0.216,0.216,-0.37,0.345,-0.487L32.167,15.932z" fill="#1D262D" id="XMLID_77_"/>
     <path xmlns="http://www.w3.org/2000/svg" d="M34.001,14.859c-0.037,0.055,-0.069,0.113,-0.099,0.17c-0.137,0.301,-0.046,0.59,0.313,0.753l1.313,0.595l-0.294,0.647l-2.405,-1.091l0.283,-0.629l0.266,0.119c-0.157,-0.254,-0.153,-0.531,-0.021,-0.827c0.063,-0.139,0.172,-0.265,0.278,-0.315L34.001,14.859z" fill="#1D262D" id="XMLID_75_"/>
     <path xmlns="http://www.w3.org/2000/svg" d="M35.798,12.572c0.075,0.034,0.162,0.079,0.213,0.111l-0.771,1.708c0.38,0.088,0.643,-0.088,0.777,-0.393c0.095,-0.209,0.112,-0.474,0.045,-0.713l0.589,-0.191c0.128,0.387,0.084,0.787,-0.1,1.192c-0.334,0.738,-1.067,1.022,-1.826,0.679c-0.758,-0.344,-1.05,-1.075,-0.724,-1.795C34.317,12.475,35.047,12.234,35.798,12.572zM34.796,14.188l0.48,-1.066c-0.335,-0.081,-0.594,0.027,-0.72,0.305C34.421,13.732,34.524,13.995,34.796,14.188z" fill="#1D262D" id="XMLID_72_"/>
     <path xmlns="http://www.w3.org/2000/svg" d="M36.963,10.002c0.074,0.034,0.161,0.079,0.212,0.112l-0.773,1.707c0.382,0.088,0.645,-0.087,0.78,-0.393c0.095,-0.209,0.111,-0.473,0.045,-0.713l0.59,-0.191c0.127,0.387,0.083,0.787,-0.101,1.191c-0.334,0.738,-1.068,1.022,-1.825,0.679c-0.759,-0.344,-1.05,-1.074,-0.724,-1.795C35.482,9.906,36.212,9.665,36.963,10.002zM35.961,11.618l0.48,-1.065c-0.335,-0.08,-0.594,0.027,-0.72,0.306C35.585,11.164,35.689,11.426,35.961,11.618z" fill="#1D262D" id="XMLID_69_"/>
     <path xmlns="http://www.w3.org/2000/svg" d="M38.235,7.202c0.727,0.328,1.04,1.076,0.739,1.739c-0.146,0.323,-0.377,0.494,-0.635,0.566l1.245,0.564l-0.292,0.646l-3.401,-1.542l0.288,-0.633l0.266,0.121c-0.126,-0.246,-0.152,-0.537,-0.005,-0.868C36.741,7.13,37.513,6.874,38.235,7.202zM37.372,9.107c0.38,0.172,0.774,0.05,0.941,-0.318c0.174,-0.382,-0.015,-0.755,-0.382,-0.921c-0.367,-0.167,-0.771,-0.062,-0.944,0.32C36.822,8.556,36.992,8.936,37.372,9.107z" fill="#1D262D" id="XMLID_66_"/>
     <path xmlns="http://www.w3.org/2000/svg" d="M36.717,5.258c0.234,0.106,0.331,0.368,0.226,0.602c-0.104,0.234,-0.363,0.331,-0.601,0.225c-0.232,-0.105,-0.335,-0.368,-0.229,-0.601C36.218,5.25,36.484,5.152,36.717,5.258zM39.874,6.793L39.58,7.442L37.171,6.35l0.294,-0.648L39.874,6.793z" fill="#1D262D" id="XMLID_63_"/>
     <path xmlns="http://www.w3.org/2000/svg" d="M38.814,5.008L38.37,3.713l0.357,-0.795L39.331,4.6l1.809,-0.597L40.777,4.8L39.39,5.27l0.976,0.441L40.07,6.359l-3.575,-1.622l0.293,-0.649L38.814,5.008z" fill="#1D262D" id="XMLID_61_"/>
    </g>
   </g>
  </g>
 </g>
</g>
</g></svg>